<svg width="12" height="12" viewBox="0 0 12 12" fill="none" xmlns="http://www.w3.org/2000/svg">
<path d="M11.9988 9.66967C11.9821 9.20549 11.7887 8.77231 11.4544 8.44993C10.7998 7.81869 10.2513 7.45428 9.72829 7.30316C9.00771 7.09489 8.34021 7.28427 7.74452 7.86603C7.74363 7.8669 7.74274 7.86779 7.74185 7.86868L7.1081 8.4977C6.71203 8.27443 5.94187 7.78421 5.10979 6.95213L5.0481 6.89049C4.21589 6.0583 3.72569 5.288 3.50264 4.89238L4.1317 4.2586C4.13259 4.25771 4.13348 4.25682 4.13437 4.25591C4.71611 3.66027 4.90549 2.99281 4.69724 2.27213C4.5461 1.74917 4.18171 1.20069 3.55045 0.546055C3.22809 0.211766 2.79494 0.0184062 2.33076 0.00167179C1.8663 -0.015086 1.42061 0.146586 1.07496 0.456852L1.0615 0.468945C1.05527 0.474547 1.04917 0.480336 1.04322 0.486266C0.35512 1.17437 -0.0055831 2.13767 6.53339e-05 3.27207C0.00969815 5.19915 1.06882 7.40293 2.83317 9.16726C3.16586 9.49996 3.54398 9.82921 3.95699 10.1459C4.16242 10.3034 4.45666 10.2646 4.61418 10.0591C4.77173 9.85367 4.73287 9.55944 4.52742 9.40192C4.14691 9.11014 3.79992 8.80817 3.49607 8.5044C1.90242 6.91074 0.945956 4.95301 0.937542 3.26741C0.933206 2.39375 1.19601 1.66454 1.69764 1.15768L1.70123 1.15445C2.04194 0.84861 2.55778 0.867219 2.87564 1.19682C4.08921 2.45537 4.00134 3.04953 3.46509 3.59942L2.59617 4.47486C2.4599 4.61216 2.42196 4.81906 2.50064 4.99578C2.52269 5.04533 3.05634 6.22454 4.38536 7.55356L4.44707 7.61518C5.77593 8.94406 6.95517 9.47769 7.00471 9.49974C7.18139 9.57847 7.38834 9.5405 7.52561 9.40424L8.40107 8.53529C8.95103 7.99902 9.5452 7.9112 10.8037 9.12477C11.1333 9.44258 11.1519 9.95844 10.8461 10.2991L10.8428 10.3028C10.3401 10.8003 9.61863 11.0629 8.75449 11.0629C8.74736 11.0629 8.74024 11.0629 8.73309 11.0629C8.04236 11.0594 7.24251 10.8701 6.42006 10.5153C6.18241 10.4128 5.90653 10.5224 5.80401 10.7601C5.70147 10.9978 5.81104 11.2736 6.04877 11.3762C6.99944 11.7862 7.90099 11.9962 8.72842 12.0004C8.73721 12.0004 8.74593 12.0004 8.75472 12.0004C9.87771 12.0004 10.8314 11.64 11.5142 10.9572C11.5202 10.9513 11.5259 10.9452 11.5315 10.9389L11.5437 10.9254C11.8539 10.5798 12.0156 10.1338 11.9988 9.66967Z" fill="#91AAB8"/>
</svg>
