<svg width="16" height="16" viewBox="0 0 16 16" fill="none" xmlns="http://www.w3.org/2000/svg">
    <path fill-rule="evenodd" clip-rule="evenodd"
        d="M11.1694 5.82652C11.6224 5.37199 11.4754 4.90711 11.2604 4.69139C11.0454 4.47567 10.582 4.3282 10.129 4.78272L7.97922 6.93957L5.83345 4.78674C5.35749 4.3092 4.91644 4.47228 4.69805 4.69139C4.47966 4.9105 4.26982 5.30555 4.79308 5.83053L6.93885 7.98336L4.79709 10.1322C4.34405 10.5867 4.48304 11.0596 4.69805 11.2753C4.91306 11.491 5.38442 11.6305 5.83746 11.176L7.97922 9.02715L10.125 11.18C10.5761 11.6326 11.0488 11.4877 11.2638 11.2719C11.4788 11.0562 11.6165 10.5888 11.1654 10.1362L9.01959 7.98336L11.1694 5.82652ZM8 16C3.58172 16 0 12.4183 0 8C0 3.58172 3.58172 0 8 0C12.4183 0 16 3.58172 16 8C16 12.4183 12.4183 16 8 16Z"
        fill="#91AAB8" />
</svg>
