<svg width="24" height="24" viewBox="0 0 24 24" fill="none" xmlns="http://www.w3.org/2000/svg">
<path d="M10.6236 8.14307C10.2785 8.14307 9.99877 8.42273 9.99863 8.76779L9.99707 12.6406C9.99707 12.8113 10.063 12.9746 10.1802 13.0951L12.8539 15.8446C13.1027 16.1005 13.5137 16.1005 13.7625 15.8446C14.0016 15.5986 14.0016 15.2071 13.7625 14.9611L11.247 12.3744L11.2486 8.76831C11.2487 8.42304 10.9689 8.14307 10.6236 8.14307Z" fill="#91AAB8" stroke="#91AAB8" stroke-width="0.2"/>
<path d="M11.25 3C6.85069 3 3.2097 6.36056 2.59989 10.7143H1.18347C0.741402 10.7143 0.516815 11.2459 0.824969 11.5628L2.7665 13.5598C2.96284 13.7618 3.28716 13.7618 3.4835 13.5598L5.42503 11.5628C5.73318 11.2459 5.50859 10.7143 5.06653 10.7143H3.8629C4.46083 7.0717 7.54098 4.28573 11.25 4.28573C15.3857 4.28573 18.75 7.7461 18.75 12C18.75 16.2539 15.3858 19.7143 11.25 19.7143C9.13889 19.7143 7.16718 18.8218 5.74893 17.2446C5.51131 16.9804 5.10703 16.9285 4.82993 17.151C4.56314 17.3652 4.5139 17.7547 4.73868 18.0127C6.39924 19.9183 8.73994 21 11.25 21C16.0748 21 20 16.962 20 12C20 7.03799 16.0748 3.00004 11.25 3Z" fill="#91AAB8" stroke="#91AAB8" stroke-width="0.2"/>
</svg>
