<svg width="16" height="16" viewBox="0 0 16 16" fill="none" xmlns="http://www.w3.org/2000/svg">
    <path
        d="M13.717 11C14.0621 11 14.342 10.7202 14.342 10.375V2.5C14.342 1.1215 13.2205 0 11.842 0H4.15796C2.77946 0 1.65796 1.1215 1.65796 2.5V13.5C1.65796 14.8785 2.77946 16 4.15796 16H11.842C13.2205 16 14.342 14.8785 14.342 13.5C14.342 13.1548 14.0622 12.875 13.717 12.875C13.3718 12.875 13.092 13.1548 13.092 13.5C13.092 14.1892 12.5312 14.75 11.842 14.75H4.15796C3.46871 14.75 2.90796 14.1892 2.90796 13.5V2.5C2.90796 1.81075 3.46871 1.25 4.15796 1.25H11.842C12.5312 1.25 13.092 1.81075 13.092 2.5V10.375C13.092 10.7202 13.3718 11 13.717 11Z"
        fill="#28B153" />
    <path
        d="M11.217 3.75H4.77954C4.43435 3.75 4.15454 4.02981 4.15454 4.375C4.15454 4.72019 4.43435 5 4.77954 5H11.217C11.5622 5 11.842 4.72019 11.842 4.375C11.842 4.02981 11.5622 3.75 11.217 3.75Z"
        fill="#28B153" />
    <path
        d="M11.217 6.25H4.77954C4.43435 6.25 4.15454 6.52981 4.15454 6.875C4.15454 7.22019 4.43435 7.5 4.77954 7.5H11.217C11.5622 7.5 11.842 7.22019 11.842 6.875C11.842 6.52981 11.5622 6.25 11.217 6.25Z"
        fill="#28B153" />
    <path
        d="M8.68923 8.75H4.77954C4.43435 8.75 4.15454 9.02981 4.15454 9.375C4.15454 9.72019 4.43435 10 4.77954 10H8.68929C9.03448 10 9.31426 9.72019 9.31426 9.375C9.31423 9.02981 9.03442 8.75 8.68923 8.75Z"
        fill="#28B153" />
</svg>
