<svg width="16" height="16" viewBox="0 0 16 16" fill="none" xmlns="http://www.w3.org/2000/svg">
    <path
        d="M7.96875 10.875C7.62356 10.875 7.34375 11.1548 7.34375 11.5V14.1562C7.34375 14.5014 7.62356 14.7812 7.96875 14.7812C8.31394 14.7812 8.59375 14.5014 8.59375 14.1562V11.5C8.59375 11.1548 8.31394 10.875 7.96875 10.875Z"
        fill="#91AAB8" />
    <path
        d="M0.625 3.75C0.970187 3.75 1.25 3.47019 1.25 3.125V1.25H3.125C3.47019 1.25 3.75 0.970187 3.75 0.625C3.75 0.279813 3.47019 0 3.125 0H0.625C0.279813 0 0 0.279813 0 0.625V3.125C0 3.47019 0.279813 3.75 0.625 3.75Z"
        fill="#91AAB8" />
    <path
        d="M3.15625 10.875C2.81106 10.875 2.53125 11.1548 2.53125 11.5V12.5938C2.53125 12.9389 2.81106 13.2188 3.15625 13.2188C3.50144 13.2188 3.78125 12.9389 3.78125 12.5938V11.5C3.78125 11.1548 3.50144 10.875 3.15625 10.875Z"
        fill="#91AAB8" />
    <path
        d="M3.125 14.75H1.25V12.875C1.25 12.5298 0.970187 12.25 0.625 12.25C0.279813 12.25 0 12.5298 0 12.875V15.375C0 15.7202 0.279813 16 0.625 16H3.125C3.47019 16 3.75 15.7202 3.75 15.375C3.75 15.0298 3.47019 14.75 3.125 14.75Z"
        fill="#91AAB8" />
    <path
        d="M5.5625 10.875C5.21731 10.875 4.9375 11.1548 4.9375 11.5V12.5938C4.9375 12.9389 5.21731 13.2188 5.5625 13.2188C5.90769 13.2188 6.1875 12.9389 6.1875 12.5938V11.5C6.1875 11.1548 5.90769 10.875 5.5625 10.875Z"
        fill="#91AAB8" />
    <path
        d="M15.375 0H12.875C12.5298 0 12.25 0.279813 12.25 0.625C12.25 0.970187 12.5298 1.25 12.875 1.25H14.75V3.125C14.75 3.47019 15.0298 3.75 15.375 3.75C15.7202 3.75 16 3.47019 16 3.125V0.625C16 0.279813 15.7202 0 15.375 0Z"
        fill="#91AAB8" />
    <path
        d="M10.4688 10.875C10.1236 10.875 9.84375 11.1548 9.84375 11.5V12.5938C9.84375 12.9389 10.1236 13.2188 10.4688 13.2188C10.8139 13.2188 11.0938 12.9389 11.0938 12.5938V11.5C11.0938 11.1548 10.8139 10.875 10.4688 10.875Z"
        fill="#91AAB8" />
    <path
        d="M15.375 8.6875H13.5625V3.125C13.5625 2.77981 13.2827 2.5 12.9375 2.5C12.5923 2.5 12.3125 2.77981 12.3125 3.125V8.6875H11.0938V3.125C11.0938 2.77981 10.8139 2.5 10.4688 2.5C10.1236 2.5 9.84375 2.77981 9.84375 3.125V8.6875H8.59375V3.125C8.59375 2.77981 8.31394 2.5 7.96875 2.5C7.62356 2.5 7.34375 2.77981 7.34375 3.125V8.6875H6.1875V3.125C6.1875 2.77981 5.90769 2.5 5.5625 2.5C5.21731 2.5 4.9375 2.77981 4.9375 3.125V8.6875H3.78125V3.125C3.78125 2.77981 3.50144 2.5 3.15625 2.5C2.81106 2.5 2.53125 2.77981 2.53125 3.125V8.6875H0.625C0.279813 8.6875 0 8.96731 0 9.3125C0 9.65769 0.279813 9.9375 0.625 9.9375H15.375C15.7202 9.9375 16 9.65769 16 9.3125C16 8.96731 15.7202 8.6875 15.375 8.6875Z"
        fill="#91AAB8" />
    <path
        d="M12.9375 13.2188C13.2827 13.2188 13.5625 12.9389 13.5625 12.5938V11.5C13.5625 11.1548 13.2827 10.875 12.9375 10.875C12.5923 10.875 12.3125 11.1548 12.3125 11.5V12.5938C12.3125 12.9389 12.5923 13.2188 12.9375 13.2188Z"
        fill="#91AAB8" />
    <path
        d="M15.375 12.25C15.0298 12.25 14.75 12.5298 14.75 12.875V14.75H12.875C12.5298 14.75 12.25 15.0298 12.25 15.375C12.25 15.7202 12.5298 16 12.875 16H15.375C15.7202 16 16 15.7202 16 15.375V12.875C16 12.5298 15.7202 12.25 15.375 12.25Z"
        fill="#91AAB8" />
</svg>
