<svg width="12" height="13" viewBox="0 0 12 13" fill="none" xmlns="http://www.w3.org/2000/svg">
    <g clip-path="url(#clip0)">
        <path
            d="M10.9589 1.87463C10.2876 1.20319 9.39496 0.833496 8.44556 0.833496C7.49606 0.833496 6.60342 1.20319 5.93216 1.87463L1.04114 6.76556C0.36969 7.43692 0 8.32956 0 9.27905C0 10.2285 0.36969 11.1211 1.04114 11.7924C1.71249 12.4637 2.60504 12.8335 3.55444 12.8335C4.50394 12.8335 5.39658 12.4638 6.06793 11.7924L8.51962 9.34067C8.70273 9.15756 8.70273 8.86075 8.51962 8.67773L4.48718 4.64529L6.595 2.53748C7.08929 2.04318 7.74646 1.771 8.44556 1.771C9.14456 1.771 9.80173 2.04318 10.296 2.53748C10.7903 3.03177 11.0625 3.68893 11.0625 4.38794C11.0625 5.08704 10.7903 5.7442 10.2969 6.23758L9.48001 7.04993C9.29645 7.23248 9.29562 7.52921 9.47818 7.71277C9.66074 7.89633 9.95755 7.89716 10.1411 7.7146L10.9589 6.90134C11.6303 6.23007 12 5.33743 12 4.38794C12 3.43854 11.6303 2.5459 10.9589 1.87463ZM7.52527 9.00916L5.405 11.1295C4.91071 11.6238 4.25354 11.896 3.55444 11.896C2.85544 11.896 2.19827 11.6238 1.70398 11.1295C1.20969 10.6352 0.9375 9.97806 0.9375 9.27905C0.9375 8.57996 1.20969 7.92279 1.70398 7.4285L3.82434 5.30823L7.52527 9.00916ZM9.02692 3.78314C8.71179 3.46811 8.19919 3.46811 7.88406 3.78314L6.74377 4.92453C6.65222 5.01617 6.5322 5.06195 6.41217 5.06195C6.29224 5.06195 6.17239 5.01627 6.08084 4.9248C5.89774 4.74179 5.89755 4.44507 6.08057 4.26187L7.22104 3.12039C7.90173 2.43961 9.00916 2.43961 9.68976 3.12021C9.87286 3.30331 9.87286 3.60013 9.68976 3.78314C9.50674 3.96616 9.20993 3.96625 9.02692 3.78314ZM2.31024 10.5467C2.12714 10.3637 2.12714 10.0669 2.31024 9.88385C2.49326 9.70074 2.79007 9.70074 2.97308 9.88385C3.28821 10.1989 3.8009 10.1989 4.11594 9.88385L5.26025 8.73843C5.44318 8.55533 5.73999 8.55524 5.92319 8.73816C6.10629 8.92117 6.10638 9.2179 5.92346 9.40109L4.77896 10.5466C4.43857 10.8869 3.99152 11.0572 3.54446 11.0572C3.09741 11.0572 2.65054 10.887 2.31024 10.5467Z"
            fill="#91AAB8" />
    </g>
    <defs>
        <clipPath id="clip0">
            <rect width="12" height="12" fill="white" transform="translate(0 0.833496)" />
        </clipPath>
    </defs>
</svg>
