<svg width="16" height="16" viewBox="0 0 16 16" fill="none" xmlns="http://www.w3.org/2000/svg">
    <g clip-path="url(#clip0)">
        <path
            d="M11.0392 10.3661C11.1537 10.5473 11.3531 10.6572 11.5675 10.6572H11.8066C12.021 10.6572 12.2204 10.5473 12.3349 10.3661C12.7611 9.69178 13.3013 9.10016 13.8238 8.528C14.8924 7.35778 15.9973 6.14775 15.9991 4.30706C15.9964 1.93216 14.062 0 11.6871 0C9.31212 0 7.37775 1.93216 7.375 4.30841C7.37678 6.14778 8.48172 7.35781 9.55031 8.52803C10.0727 9.10016 10.613 9.69181 11.0392 10.3661ZM11.6871 1.24987C13.3736 1.24987 14.7473 2.622 14.7492 4.30719C14.7479 5.66244 13.892 6.59984 12.9008 7.68522C12.4918 8.13313 12.0727 8.59219 11.6871 9.10697C11.3015 8.59222 10.8823 8.13309 10.4733 7.68522C9.48216 6.59984 8.62619 5.66244 8.62487 4.3085C8.62681 2.622 10.0005 1.24987 11.6871 1.24987Z"
            fill="#91AAB8" />
        <path
            d="M12.2809 5.62066C12.2809 5.2755 12.0011 4.99572 11.6559 4.99572C11.3113 4.99572 11.031 4.71538 11.031 4.37078C11.031 4.02619 11.3113 3.74585 11.6559 3.74585C12.0005 3.74585 12.2809 4.02619 12.2809 4.37078C12.2809 4.71594 12.5607 4.99572 12.9058 4.99572C13.251 4.99572 13.5308 4.71594 13.5308 4.37078C13.5308 3.337 12.6897 2.49597 11.6559 2.49597C10.6222 2.49597 9.78113 3.337 9.78113 4.37078C9.78113 5.40457 10.6222 6.2456 11.6559 6.2456C12.0011 6.2456 12.2809 5.96578 12.2809 5.62066Z"
            fill="#91AAB8" />
        <path
            d="M15.3747 8.90813C15.0295 8.90813 14.7497 9.18791 14.7497 9.53307V14.1096C14.7497 14.3245 14.6471 14.518 14.4683 14.6404C14.2964 14.758 14.0887 14.7831 13.8985 14.7092C13.8884 14.7052 13.8782 14.7016 13.8679 14.6982L11.5099 13.9205C10.8467 13.6755 10.1347 13.6398 9.44994 13.8175L6.17819 14.6665C5.75322 14.7768 5.30338 14.7792 4.87725 14.6733L2.19969 14.0082C1.64119 13.8694 1.25113 13.3706 1.25113 12.7952V1.87761C1.25113 1.66745 1.35078 1.47908 1.52456 1.36089C1.69835 1.24267 1.91016 1.21914 2.1056 1.29636C2.11535 1.3002 2.12516 1.3038 2.13506 1.30714L4.46819 2.09551C5.06447 2.32142 5.71025 2.37751 6.33675 2.25764C6.67575 2.19276 6.898 1.86539 6.83316 1.52642C6.76828 1.18742 6.44081 0.965108 6.10194 1.03001C5.69985 1.10695 5.28531 1.07017 4.90306 0.92367C4.89525 0.92067 4.88741 0.917858 4.8795 0.915202L2.5485 0.127578C1.97475 -0.0929846 1.33047 -0.0187347 0.821596 0.327452C0.307908 0.676858 0.0012207 1.25636 0.0012207 1.87761V12.7952C0.0012207 13.9461 0.781314 14.9437 1.89831 15.2212L4.57585 15.8863C4.8831 15.9626 5.19866 16.0008 5.51425 16.0008C5.84341 16.0008 6.17256 15.9593 6.4921 15.8763L9.76385 15.0274C10.203 14.9134 10.6596 14.9371 11.0845 15.0958C11.0921 15.0987 11.0998 15.1014 11.1075 15.1039L13.4625 15.8806C14.0306 16.0949 14.6691 16.0175 15.1741 15.6719C15.691 15.3182 15.9996 14.7341 15.9996 14.1096V9.53307C15.9996 9.18791 15.7198 8.90813 15.3747 8.90813Z"
            fill="#91AAB8" />
        <path
            d="M5.53155 5.75153C5.18627 5.75153 4.90662 6.03118 4.90662 6.37646C4.90662 6.72143 5.18627 7.0014 5.53155 7.0014C5.87683 7.0014 6.15649 6.72143 6.15649 6.37646C6.15649 6.03118 5.87683 5.75153 5.53155 5.75153Z"
            fill="#91AAB8" />
        <path
            d="M5.53155 8.00122C5.18627 8.00122 4.90662 8.28088 4.90662 8.62616C4.90662 8.97144 5.18627 9.2511 5.53155 9.2511C5.87683 9.2511 6.15649 8.97144 6.15649 8.62616C6.15649 8.28088 5.87683 8.00122 5.53155 8.00122Z"
            fill="#91AAB8" />
        <path
            d="M5.53155 10.2509C5.18627 10.2509 4.90662 10.5305 4.90662 10.8758C4.90662 11.2211 5.18627 11.5008 5.53155 11.5008C5.87683 11.5008 6.15649 11.2211 6.15649 10.8758C6.15649 10.5305 5.87683 10.2509 5.53155 10.2509Z"
            fill="#91AAB8" />
        <path
            d="M5.53155 3.50146C5.18627 3.50146 4.90662 3.78112 4.90662 4.1264C4.90662 4.47137 5.18627 4.75133 5.53155 4.75133C5.87683 4.75133 6.15649 4.47137 6.15649 4.1264C6.15649 3.78112 5.87683 3.50146 5.53155 3.50146Z"
            fill="#91AAB8" />
        <path
            d="M5.53155 12.5008C5.18627 12.5008 4.90662 12.7805 4.90662 13.1258C4.90662 13.4707 5.18627 13.7507 5.53155 13.7507C5.87683 13.7507 6.15649 13.4707 6.15649 13.1258C6.15649 12.7805 5.87683 12.5008 5.53155 12.5008Z"
            fill="#91AAB8" />
    </g>
    <defs>
        <clipPath id="clip0">
            <rect width="16" height="16" fill="white" transform="translate(-0.00012207)" />
        </clipPath>
    </defs>
</svg>
