<svg width="11" height="14" viewBox="0 0 11 14" fill="none" xmlns="http://www.w3.org/2000/svg">
<path d="M6.0906 7.86063C6.0906 7.51613 5.81132 7.23684 5.46682 7.23684C4.50372 7.23684 3.72022 6.45334 3.72022 5.49025C3.72022 4.52716 4.50372 3.74366 5.46682 3.74366C6.42991 3.74366 7.21341 4.52716 7.21341 5.49025C7.21341 5.83475 7.49269 6.11403 7.8372 6.11403C8.1817 6.11403 8.46098 5.83475 8.46098 5.49025C8.46098 3.83925 7.11782 2.49609 5.46682 2.49609C3.81581 2.49609 2.47266 3.83925 2.47266 5.49025C2.47266 7.14125 3.81581 8.48441 5.46682 8.48441C5.81135 8.48441 6.0906 8.20513 6.0906 7.86063Z" fill="#91AAB8"/>
<path d="M4.77384 13.3076C4.88809 13.4887 5.08722 13.5984 5.30131 13.5984H5.61487C5.82897 13.5984 6.02809 13.4887 6.14234 13.3076C6.71047 12.4076 7.42478 11.6243 8.11553 10.8668C9.49131 9.35809 10.9139 7.79806 10.9162 5.45825C10.9127 2.44859 8.46422 0 5.45809 0C2.45197 0 0.00346875 2.44859 0 5.45962C0.00225 7.79806 1.42487 9.35813 2.80066 10.8668C3.49141 11.6243 4.20569 12.4076 4.77384 13.3076ZM5.45809 1.24756C7.77712 1.24756 9.66594 3.13713 9.66862 5.45841C9.66681 7.31416 8.52075 8.57094 7.19372 10.0262C6.60491 10.6719 5.99988 11.3353 5.45809 12.0917C4.91634 11.3353 4.31134 10.6719 3.72247 10.0262C2.39544 8.57094 1.24937 7.31413 1.24756 5.45972C1.25025 3.13713 3.13906 1.24756 5.45809 1.24756Z" fill="#91AAB8"/>
</svg>
