<svg width="160" height="160" viewBox="0 0 160 160" fill="none" xmlns="http://www.w3.org/2000/svg">
    <g clip-path="url(#clip0)">
        <path
            d="M102.901 23.7887C100.748 15.7279 95.6068 9.00539 88.4262 4.85963C83.7282 2.14751 78.378 0.713867 72.9537 0.713867C61.8203 0.713867 51.4683 6.66461 45.9379 16.2439L26.3383 50.1911C26.3364 50.1942 26.3342 50.1969 26.3324 50.2C26.3305 50.2031 26.3293 50.2065 26.3274 50.2096L6.7272 84.1577C-1.84801 99.0107 3.25971 118.071 18.1127 126.646C22.8098 129.358 28.1594 130.791 33.583 130.791C43.7371 130.791 53.2677 125.876 59.0769 117.642C59.1302 117.567 59.1801 117.489 59.2262 117.409L99.8095 47.3526C103.952 40.2002 105.05 31.8321 102.901 23.7887ZM53.9379 114.181C49.2802 120.706 41.6815 124.597 33.583 124.597C29.2452 124.597 24.9666 123.451 21.2098 121.282C9.31451 114.414 5.22419 99.1498 12.0917 87.2545L30.1486 55.9792L36.8526 59.8496C36.8532 59.8499 36.8535 59.8506 36.8541 59.8506C36.8544 59.8509 36.855 59.8509 36.8554 59.8512L73.2405 80.859L53.9379 114.181ZM94.4494 44.2471L76.3451 75.4998L42.633 56.0356L51.2974 41.0283C52.1525 39.547 51.6452 37.6528 50.1638 36.7977C48.6825 35.9423 46.7883 36.4499 45.9332 37.9312L37.2688 52.9385L33.2454 50.6157L51.3017 19.3413C55.7296 11.672 64.0261 6.90804 72.9537 6.90804C77.2921 6.90804 81.5717 8.05458 85.3291 10.2241C91.0757 13.5417 95.1911 18.9272 96.9171 25.3877C98.6385 31.8309 97.762 38.5287 94.4494 44.2471Z"
            fill="#E1E3E6" />
        <path
            d="M143.878 106.888C136.315 104.727 126.342 103.537 115.795 103.537C105.249 103.537 95.2759 104.727 87.7134 106.888C78.7282 109.455 74.1677 113.069 74.1572 117.63C74.1572 117.636 74.1562 117.641 74.1562 117.646V145.176C74.1562 149.752 78.7102 153.374 87.6911 155.94C95.2393 158.097 105.22 159.285 115.795 159.285C126.369 159.285 136.35 158.097 143.898 155.94C152.88 153.374 157.433 149.752 157.433 145.176V117.665C157.434 117.659 157.434 117.653 157.434 117.646C157.434 113.078 152.873 109.458 143.878 106.888ZM89.4153 112.844C96.4401 110.837 105.809 109.732 115.796 109.732C125.783 109.732 135.151 110.837 142.176 112.844C149.644 114.977 151.231 117.269 151.24 117.643C151.24 117.644 151.24 117.645 151.24 117.647V117.652C151.227 118.03 149.635 120.318 142.176 122.449C135.151 124.456 125.783 125.561 115.796 125.561C105.809 125.561 96.4401 124.456 89.4153 122.449C81.9268 120.309 80.351 118.01 80.351 117.647C80.351 117.283 81.9268 114.983 89.4153 112.844ZM151.24 145.176C151.24 145.617 149.631 147.861 142.197 149.985C135.187 151.988 125.81 153.091 115.795 153.091C105.78 153.091 96.4039 151.988 89.3933 149.985C81.96 147.861 80.351 145.617 80.351 145.176V125.566C82.3341 126.621 84.7879 127.569 87.7137 128.405C95.2762 130.565 105.249 131.755 115.796 131.755C126.342 131.755 136.315 130.565 143.878 128.405C146.803 127.569 149.257 126.621 151.24 125.567V133.296C146.796 135.495 141.253 137.276 135.072 138.477C133.392 138.804 132.296 140.43 132.622 142.109C132.91 143.588 134.206 144.615 135.659 144.615C135.855 144.615 136.054 144.596 136.254 144.558C141.77 143.485 146.858 141.968 151.24 140.105V145.176Z"
            fill="#E1E3E6" />
        <path
            d="M54.8154 28.7387C53.334 27.8835 51.4401 28.3909 50.5847 29.8722L50.5346 29.9592C49.6794 31.4406 50.1868 33.3344 51.6681 34.1899C52.1559 34.4714 52.6883 34.6052 53.2138 34.6052C54.2842 34.6052 55.3251 34.0499 55.8987 33.0563L55.9489 32.9693C56.8043 31.4879 56.2967 29.5941 54.8154 28.7387Z"
            fill="#E1E3E6" />
        <path
            d="M129.466 142.549C129.296 140.847 127.782 139.606 126.076 139.775L126.006 139.782C124.304 139.943 123.054 141.455 123.215 143.157C123.367 144.761 124.716 145.962 126.295 145.962C126.392 145.962 126.491 145.958 126.59 145.948L126.692 145.939C128.394 145.768 129.636 144.251 129.466 142.549Z"
            fill="#E1E3E6" />
    </g>
    <defs>
        <clipPath id="clip0">
            <rect width="158.571" height="158.571" fill="white"
                transform="translate(0.714844 0.713867)" />
        </clipPath>
    </defs>
</svg>
