<svg width="12" height="12" viewBox="0 0 12 12" fill="none" xmlns="http://www.w3.org/2000/svg">
<path d="M7.66287 3.35156C7.66287 2.83383 8.08255 2.41406 8.60037 2.41406C9.1181 2.41406 9.53787 2.83383 9.53787 3.35156C9.53787 3.86929 9.1181 4.28906 8.60037 4.28906C8.08255 4.28906 7.66287 3.86929 7.66287 3.35156ZM6.42004 11.3134L7.85413 9.879C8.03714 9.69589 8.03705 9.39917 7.85403 9.21616C7.67093 9.03305 7.37411 9.03314 7.1911 9.21625L5.75702 10.6506C5.49142 10.9162 5.13831 11.0625 4.76266 11.0625C4.38702 11.0625 4.03391 10.9162 3.76831 10.6506L1.34821 8.2305C0.800263 7.68256 0.799896 6.79065 1.34756 6.24225L6.64371 0.9375H10.1238C10.6407 0.9375 11.0613 1.35809 11.0613 1.875V5.3443L8.87054 7.53598C8.68753 7.71909 8.68762 8.0159 8.87073 8.19891C9.05383 8.38193 9.35065 8.38184 9.53366 8.19882L11.8616 5.86981C11.9495 5.78192 11.9988 5.66272 11.9988 5.53839V1.875C11.9988 0.841095 11.1576 0 10.1238 0H6.44934C6.32492 0 6.20554 0.04953 6.11765 0.137512L0.684174 5.57986C-0.228515 6.49374 -0.227966 7.9801 0.685272 8.89334L3.10538 11.3135C3.54803 11.7562 4.13663 12 4.76266 12C5.3887 12 5.97729 11.7562 6.42004 11.3134Z" fill="#28B153"/>
</svg>
